Coordinates
version=1
nRows=14
nColumns=36
inDegrees=yes

Units are S.I. units (second, meters, Newtons, ...)
If the header above contains a line with 'inDegrees', this indicates whether rotational values are in degrees (yes) or radians (no).

endheader
time	pelvis_tilt	pelvis_list	pelvis_rotation	pelvis_tx	pelvis_ty	pelvis_tz	hip_flexion_r	hip_adduction_r	hip_rotation_r	knee_angle_r	knee_angle_r_beta	ankle_angle_r	subtalar_angle_r	mtp_angle_r	hip_flexion_l	hip_adduction_l	hip_rotation_l	knee_angle_l	knee_angle_l_beta	ankle_angle_l	subtalar_angle_l	mtp_angle_l	lumbar_extension	lumbar_bending	lumbar_rotation	arm_flex_r	arm_add_r	arm_rot_r	elbow_flex_r	pro_sup_r	arm_flex_l	arm_add_l	arm_rot_l	elbow_flex_l	pro_sup_l
      5.32500000	    -85.94315659	      6.66741768	   -179.52549433	      0.92304051	      0.43178876	     -0.59946730	     10.70707474	      0.92586475	    -14.32211082	     11.95478263	      0.20865032	     15.74671489	      4.40030748	     -7.49999987	     13.00707492	    -15.02725017	    -17.71079441	     21.82487069	      0.38091585	     28.88757833	     13.94195112	     -7.49999987	    -19.91685872	      8.96461639	      1.61798932	      8.64673430	     -8.12379019	     -0.06259700	     18.97558874	     94.30361369	      6.59274907	     -5.95309819	      4.84537770	     23.65296848	    102.75898774
      5.33333333	    -86.33492847	      6.57662423	   -179.66912661	      0.92334061	      0.43391017	     -0.59947336	     10.13582485	      0.98969486	    -13.50700118	     11.85492118	      0.20690741	     15.13312460	      3.36905583	     -7.49999987	     12.29339531	    -14.81829671	    -17.57078170	     21.53177677	      0.37580040	     28.45947448	     13.76049393	     -7.49999987	    -20.18176723	      8.81766541	      1.88003267	      9.54888600	     -7.95949684	     -0.99407310	     19.17658994	     96.53688438	      7.46442098	     -5.77223517	      3.86904698	     23.75838672	    104.82703275
      5.34166667	    -86.95826504	      6.46929802	   -179.51778973	      0.92391283	      0.43687749	     -0.59896658	      9.28425218	      0.93695093	    -13.00656638	     11.88709934	      0.20746902	     14.79437963	      2.60082970	     -7.49999987	     11.29310366	    -14.46824863	    -17.09495000	     21.14083882	      0.36897724	     28.07688596	     13.26838332	     -7.49999987	    -20.55098342	      8.73094827	      1.88940761	     10.43274843	     -7.87750517	     -0.30392738	     19.33157640	     94.81081006	      8.34954666	     -5.81245808	      4.57955208	     23.81348096	    102.87823475
      5.35000000	    -87.16399489	      7.24016463	   -179.30994947	      0.92353963	      0.43938701	     -0.59921935	      8.74172946	      1.97918250	    -12.49273798	     11.51795256	      0.20102620	     14.43162263	      1.57593928	     -7.49999987	     11.38839958	    -15.48716226	    -16.94168684	     21.88197589	      0.38191253	     28.37107099	     13.61066007	     -7.49999987	    -20.48111169	      9.62943120	      2.13373602	     11.19454423	     -7.87392434	     -0.76692121	     19.66815332	     96.35223028	      9.29046357	     -5.73150314	      5.07122026	     23.64321491	    104.76902358
      5.35833333	    -87.05037608	      7.93751562	   -179.61735702	      0.92321699	      0.44025127	     -0.60039319	      8.79603677	      2.86578652	    -12.50792127	     11.39712830	      0.19891741	     14.15906213	      1.85392403	     -7.49999987	     11.83247903	    -16.47032932	    -16.79907403	     22.62168907	      0.39482296	     28.45436471	     13.41371216	     -7.49999987	    -20.35939311	     10.32154509	      2.72191352	     12.26495667	     -7.96753224	     -0.51052127	     19.91174392	     96.96331831	     10.29458720	     -5.47911767	      5.21473160	     23.63077162	    104.93539947
      5.36666667	    -87.53714125	      7.86492572	   -179.66843377	      0.92385128	      0.44284547	     -0.60024553	      8.10624630	      2.86182981	    -11.95293874	     11.43031081	      0.19949656	     14.11068691	      1.36539077	     -7.49999987	     11.01300683	    -16.29997259	    -16.48680010	     22.46526933	      0.39209292	     28.31900591	     12.83126995	     -7.49999987	    -20.67307462	     10.25057873	      2.86633448	     13.26050559	     -7.93552887	     -0.30576591	     20.16276703	     97.90685730	     11.29198916	     -5.37634515	      5.42339784	     23.59837624	    105.01790652
      5.37500000	    -87.75963198	      8.33922870	   -179.85505308	      0.92381624	      0.44530595	     -0.60094700	      7.56153615	      3.61326182	    -11.08056868	     11.11379619	      0.19397234	     13.65979263	      0.33792135	     -7.49999987	     10.80758383	    -17.12284254	    -16.93294603	     23.09001889	      0.40299685	     28.48412943	     13.15200062	     -7.49999987	    -20.70312125	     10.69982580	      3.36662958	     14.11212867	     -8.07921847	      0.65299131	     20.50228149	     96.73127887	     12.29134946	     -5.39925330	      6.49866139	     23.62166193	    104.45244596
      5.38333333	    -87.93094974	      8.49364600	   -179.91235904	      0.92364962	      0.44713224	     -0.60104477	      7.33797199	      3.82943171	    -10.79591845	     11.25122596	      0.19637094	     13.60869339	      0.01411921	     -7.49999987	     10.71974138	    -17.48956904	    -17.23387025	     23.64394087	      0.41266462	     28.59296837	     13.35013838	     -7.49999987	    -20.71095258	     10.85006526	      3.59373274	     15.05380962	     -8.08709641	      0.87715111	     20.75969795	     97.38471301	     13.29888778	     -5.38045100	      6.61596739	     23.75629648	    105.33661069
      5.39166667	    -88.13452546	      8.83543594	   -179.87294972	      0.92348721	      0.44927059	     -0.60097611	      7.01093972	      4.25618260	    -10.59542064	     11.26897602	      0.19668073	     13.49011210	     -0.29095889	     -7.49999987	     10.58778284	    -18.08331487	    -17.60409479	     24.13005887	      0.42114898	     28.73016566	     13.86944676	     -7.49999987	    -20.71922746	     11.24469911	      3.78141240	     16.03215993	     -8.10927013	      1.13361712	     20.96271129	     97.71614742	     14.17282191	     -5.19876548	      6.42363811	     23.91357230	    105.55626607
      5.40000000	    -88.34347514	      9.12680147	   -179.91382964	      0.92334952	      0.45194878	     -0.60117783	      6.60391642	      4.64205980	    -10.44620269	     11.27770425	      0.19683307	     13.54785569	     -0.41895712	     -7.49999987	     10.32617390	    -18.60264707	    -18.08197717	     24.48245392	      0.42729943	     28.86278245	     14.45185904	     -7.49999987	    -20.67763451	     11.55822887	      4.01434711	     16.94595832	     -8.13708118	      1.60848364	     21.17684786	     97.40141428	     14.98186827	     -5.02811404	      6.54257514	     23.95744593	    105.58543721
      5.40833333	    -88.80447392	      9.33729081	   -180.04717448	      0.92409148	      0.45501777	     -0.60165161	      5.76647480	      4.99878936	     -9.95678162	     11.12544372	      0.19417562	     13.10393579	     -0.83646043	     -7.49999987	      9.54192704	    -18.95638730	    -18.52589936	     24.47116219	      0.42710235	     28.39053699	     14.83645678	     -7.49999987	    -20.86746318	     11.75892843	      4.47917216	     17.77210146	     -8.18252612	      1.63866510	     21.42152791	     96.06936093	     16.04841436	     -5.00806745	      7.39198319	     23.74057267	    104.53768295
      5.41666667	    -88.96752053	      9.34864357	   -180.13122235	      0.92401398	      0.45750104	     -0.60201650	      5.60748685	      4.97868795	    -10.04233958	     11.54998840	      0.20158533	     13.48611148	     -0.64379977	     -7.49999987	      9.38088446	    -19.13001277	    -18.88007453	     24.95815204	      0.43560193	     28.62006360	     15.15829742	     -7.49999987	    -20.76489076	     11.73548395	      4.71334640	     18.64022939	     -8.16222957	      1.82733835	     21.61373743	     97.04159020	     17.03798609	     -5.12732376	      7.99508254	     23.77056038	    105.05271243
      5.42500000	    -89.10438677	      9.21053755	   -180.05435882	      0.92411988	      0.45955984	     -0.60178818	      5.53921201	      4.74814201	    -10.18092346	     11.96387012	      0.20880892	     13.79843767	     -0.57649687	     -7.49999987	      9.22858679	    -18.91110354	    -18.49698239	     25.17829799	      0.43944420	     28.61635539	     14.60850099	     -7.49999987	    -20.66993107	     11.61668487	      4.73056116	     19.59322438	     -8.11992296	      2.17692969	     21.76750511	     97.74928113	     18.07066729	     -5.21974027	      8.65362246	     23.78399803	    105.30309456
      5.43333333	    -89.15892254	      9.52332098	   -179.97537091	      0.92391281	      0.46175266	     -0.60182030	      5.36547630	      5.14268802	     -9.93177852	     11.98121343	      0.20911162	     13.70754352	     -1.15927930	     -7.49999987	      9.33751071	    -19.37223032	    -18.27203342	     25.73357455	      0.44913560	     28.77447114	     14.48203201	     -7.49999987	    -20.47160844	     12.00247324	      4.86349885	     20.48825318	     -8.11920591	      2.22805665	     22.10443423	     98.11390984	     18.95814167	     -5.16414235	      8.86125588	     23.93066513	    105.38274305
